<svg width="239" height="256" fill="none" shape-rendering="crispEdges" xmlns="http://www.w3.org/2000/svg" image-rendering="pixelated"><ellipse cx="121" cy="248.5" rx="77" ry="7.5" fill="#10151E"/><g style="mix-blend-mode:luminosity"><path fill-rule="evenodd" clip-rule="evenodd" d="M133 216h13v9h1v5h2v5h9v2h2v3h1v3h2v3h1v4h-21v-1h-1v-1h-1v-1h-4v-2h-9v-4h2v-3h2v-4h1v-18z" fill="#0F263F"/><path fill="#0B1E32" d="M148.247 225.193h-1.122v5.33h1.122z"/><path fill="#0B1E32" d="M147.405 219.583h-1.122v7.854h1.122z"/><path fill="#0B1E32" d="M146.284 217.339h-1.122v7.854h1.122zM148.247 233.048h-1.122v1.122h1.122zM158.346 235.292h-1.122v1.122h1.122z"/><path fill="#0B1E32" d="M158.346 236.414h-1.122v1.122h1.122zM152.735 239.78h-1.122v5.61h1.122z"/><path fill="#0B1E32" d="M159.468 236.414h-1.122v1.122h1.122zM159.468 237.536h-1.122v1.122h1.122z"/><path fill="#0B1E32" d="M159.468 238.658h-1.122v1.122h1.122zM160.59 238.658h-1.122v1.122h1.122z"/><path fill="#0B1E32" d="M160.59 237.536h-1.122v1.122h1.122zM160.59 240.902h-1.122v1.122h1.122z"/><path fill="#0B1E32" d="M160.59 239.78h-1.122v1.122h1.122z"/><path fill="#0B1E32" d="M161.712 240.902h-1.122v1.122h1.122zM162.834 244.268h-1.122v1.122h1.122z"/><path fill="#0B1E32" d="M163.956 244.268h-1.122v1.122h1.122zM163.956 246.512h-1.122v1.122h1.122zM165.078 246.512h-1.122v1.122h1.122zM165.078 248.756h-1.122v1.122h1.122z"/><path fill="#0F263F" d="M142.917 248.756h-1.122v1.122h1.122zM141.796 247.634h-1.122v1.122h1.122z"/><path fill="#0F263F" d="M140.674 246.512h-3.366v1.122h3.366zM137.308 245.39h-5.61v1.122h5.61z"/><path fill="#0F263F" d="M131.978 244.268h-4.769v1.122h4.769zM128.331 240.902h-1.122v3.366h1.122zM129.453 239.78h-1.122v3.366h1.122z"/><path fill="#0F263F" d="M130.575 237.536h-1.122v3.366h1.122zM131.697 234.17h-1.122v3.366h1.122z"/><path fill="#0F263F" d="M132.819 217.339h-1.122v18.514h1.122zM133.941 216.217h-1.122v18.514h1.122zM137.308 215.095h-1.122v3.366h1.122z"/><path fill="#0F263F" d="M136.186 216.217h-2.244v2.244h2.244zM139.552 215.095h-2.244v2.244h2.244z"/><path fill="#0F263F" d="M146.284 215.095h-8.976v2.244h8.976z"/><path fill="#0B1E32" d="M166.199 248.756h-1.122v1.122h1.122z"/><path fill="#0F263F" d="M166.199 249.878h-1.122V251h1.122z"/><path fill="#0F263F" d="M165.078 249.878h-22.16V251h22.16zM167.321 249.878h-1.122V251h1.122z"/><path fill="#0B1E32" d="M162.834 242.024h-1.122v1.122h1.122z"/><path fill="#0B1E32" d="M162.834 243.146h-1.122v1.122h1.122z"/><path fill="#0B1E32" d="M163.956 243.146h-1.122v1.122h1.122zM163.956 245.39h-1.122v1.122h1.122zM161.712 239.78h-1.122v1.122h1.122zM165.078 245.39h-1.122v1.122h1.122zM165.078 247.634h-1.122v1.122h1.122z"/><path fill="#0B1E32" d="M166.199 247.634h-1.122v1.122h1.122zM161.712 242.024h-1.122v1.122h1.122zM156.943 233.048h-7.574v1.122h7.574zM147.405 235.292h-7.013v1.122h7.013zM152.735 238.658h-8.976v1.122h8.976z"/><path fill="#0B1E32" d="M158.346 234.17H144.04v1.122h14.306z"/><path fill="#0B1E32" d="M147.125 233.048h-1.122v1.122h1.122zM149.369 228.559h-1.122v6.732h1.122z"/><path fill-rule="evenodd" clip-rule="evenodd" d="M109 216H96v9h-1v5h-2v5h-8v2h-3v3h-1v3h-2v3h-1v4h21v-1h1v-1h2v-1h3v-2h9v-4h-2v-3h-1v-4h-2v-18z" fill="#0F263F"/><path fill="#0B1E32" d="M93.967 225.193h1.122v5.33h-1.122z"/><path fill="#0B1E32" d="M94.809 219.583h1.122v7.854h-1.122z"/><path fill="#0B1E32" d="M95.93 217.339h1.122v7.854H95.93zM93.967 233.048h1.122v1.122h-1.122zM83.868 235.292h1.122v1.122h-1.122z"/><path fill="#0B1E32" d="M83.868 236.414h1.122v1.122h-1.122zM89.478 239.78H90.6v5.61h-1.122zM82.746 236.414h1.122v1.122h-1.122zM82.746 237.536h1.122v1.122h-1.122z"/><path fill="#0B1E32" d="M82.746 238.658h1.122v1.122h-1.122zM81.624 238.658h1.122v1.122h-1.122z"/><path fill="#0B1E32" d="M81.624 237.536h1.122v1.122h-1.122zM81.624 240.902h1.122v1.122h-1.122z"/><path fill="#0B1E32" d="M81.624 239.78h1.122v1.122h-1.122zM80.502 240.902h1.122v1.122h-1.122zM79.38 244.268h1.122v1.122H79.38zM78.258 244.268h1.122v1.122h-1.122zM78.258 246.512h1.122v1.122h-1.122zM77.136 246.512h1.122v1.122h-1.122zM77.136 248.756h1.122v1.122h-1.122z"/><path fill="#0F263F" d="M99.297 248.756h1.122v1.122h-1.122zM100.418 247.634h1.122v1.122h-1.122zM101.54 246.512h3.366v1.122h-3.366zM104.906 245.39h5.61v1.122h-5.61z"/><path fill="#0F263F" d="M110.236 244.268h4.769v1.122h-4.769zM113.883 240.902h1.122v3.366h-1.122zM112.761 239.78h1.122v3.366h-1.122zM111.639 237.536h1.122v3.366h-1.122zM110.517 234.17h1.122v3.366h-1.122zM109.395 217.339h1.122v18.514h-1.122zM108.272 216.217h1.122v18.514h-1.122zM104.906 215.095h1.122v3.366h-1.122zM106.028 216.217h2.244v2.244h-2.244zM102.662 215.095h2.244v2.244h-2.244z"/><path fill="#0F263F" d="M95.93 215.095h8.976v2.244H95.93z"/><path fill="#0B1E32" d="M76.015 248.756h1.122v1.122h-1.122z"/><path fill="#0F263F" d="M76.015 249.878h1.122V251h-1.122z"/><path fill="#0F263F" d="M77.136 249.878h22.16V251h-22.16zM74.893 249.878h1.122V251h-1.122z"/><path fill="#0B1E32" d="M79.38 242.024h1.122v1.122H79.38z"/><path fill="#0B1E32" d="M79.38 243.146h1.122v1.122H79.38zM78.258 243.146h1.122v1.122h-1.122zM78.258 245.39h1.122v1.122h-1.122zM80.502 239.78h1.122v1.122h-1.122zM77.136 245.39h1.122v1.122h-1.122zM77.136 247.634h1.122v1.122h-1.122z"/><path fill="#0B1E32" d="M76.015 247.634h1.122v1.122h-1.122zM80.502 242.024h1.122v1.122h-1.122zM85.27 233.048h7.574v1.122H85.27zM94.809 235.292h7.013v1.122h-7.013zM89.478 238.658h8.976v1.122h-8.976z"/><path fill="#0B1E32" d="M83.868 234.17h14.306v1.122H83.868z"/><path fill="#0B1E32" d="M95.089 233.048h1.122v1.122h-1.122zM92.845 228.559h1.122v6.732h-1.122z"/><path fill="#7EC4C1" d="M90.846 29h2.412v2.412h-2.412zM88.434 30.447h2.412v2.412h-2.412zM93.258 39.614h2.412v2.412h-2.412zM86.022 32.86h2.412v2.412h-2.412zM83.609 34.307h2.412v2.412h-2.412zM81.196 36.719h2.412v2.412h-2.412zM90.846 42.026h2.412v2.412h-2.412zM78.785 39.132h2.412v2.412h-2.412zM88.434 44.439h2.412v2.412h-2.412zM76.372 41.544h2.412v2.412h-2.412zM73.96 43.956h2.412v2.412H73.96zM71.548 46.368h2.412v2.412h-2.412zM86.022 46.851h2.412v2.412h-2.412zM69.136 48.781h2.412v2.412h-2.412zM66.723 51.193h2.412v2.412h-2.412zM64.311 53.605h2.412v2.412h-2.412zM61.898 56.018h2.412v2.412h-2.412zM59.486 58.43h2.412v2.412h-2.412zM83.609 49.263h2.412v2.412h-2.412zM81.196 51.676h2.412v2.412h-2.412zM78.785 54.088h2.412V56.5h-2.412zM76.372 56.5h2.412v2.412h-2.412z"/><path fill="#7EC4C1" d="M93.258 30.447h2.412v2.412h-2.412zM94.705 32.86h2.412v2.412h-2.412zM95.671 35.272h2.412v2.412h-2.412zM94.705 37.684h2.412v2.412h-2.412zM73.96 58.912h2.412v2.412H73.96zM90.846 93.65h2.412v-2.413h-2.412zM88.434 92.202h2.412V89.79h-2.412zM93.258 83.035h2.412v-2.412h-2.412zM86.02 89.79h2.413v-2.412H86.02z"/><path fill="#7EC4C1" d="M83.61 88.342h2.411V85.93H83.61zM81.196 85.93h2.412v-2.412h-2.412zM90.846 80.623h2.412v-2.412h-2.412zM78.784 83.518h2.412v-2.412h-2.412zM88.434 78.21h2.412V75.8h-2.412zM76.372 81.106h2.412v-2.412h-2.412zM73.96 78.693h2.412v-2.412H73.96zM71.547 76.28h2.412V73.87h-2.412zM86.02 75.798h2.413v-2.412H86.02zM69.136 73.869h2.412v-2.412h-2.412zM66.723 71.456h2.412v-2.412h-2.412zM64.31 69.044h2.413v-2.412H64.31zM83.61 73.386h2.411v-2.412H83.61zM81.196 70.974h2.412v-2.412h-2.412zM78.784 68.562h2.412V66.15h-2.412zM76.372 66.15h2.412v-2.413h-2.412zM93.258 92.202h2.412V89.79h-2.412zM94.705 89.79h2.412v-2.412h-2.412zM95.67 87.377h2.412v-2.412H95.67z"/><path fill="#7EC4C1" d="M94.705 84.965h2.412v-2.412h-2.412zM73.96 63.737h2.412v-2.412H73.96zM61.898 64.219h2.412v2.412h-2.412zM59.486 60.842h2.412v3.377h-2.412z"/><path d="M89 33l3-2h1l1 1 3 2-1 4-2 3-2 2-2 3-3 2-2 2-3 3-2 2-2 3-3 2v3l3 2 2 3 3 2 2 2 2 3 3 2 2 3 3 2 1 4v4l-2 1-2 1-2-1-3-2-2-2-2-2-3-3-2-3-3-1-2-3-2-3-3-1-2-3-3-2-2-3v-4l2-2 3-2 2-2 3-3 2-2 2-3 3-2 2-3 3-2 2-2 4-3zM152.601 30.447h-2.412v2.412h2.412zM155.013 31.895h-2.412v2.412h2.412zM150.188 41.062h-2.412v2.412h2.412zM157.425 34.307h-2.412v2.412h2.412z" fill="#7EC4C1"/><path fill="#7EC4C1" d="M159.837 35.754h-2.412v2.412h2.412zM162.25 38.167h-2.412v2.412h2.412zM152.601 43.474h-2.412v2.412h2.412zM164.661 40.579h-2.412v2.412h2.412zM155.013 45.886h-2.412v2.412h2.412zM167.074 42.991h-2.412v2.412h2.412zM169.486 45.404h-2.412v2.412h2.412zM171.898 47.816h-2.412v2.412h2.412zM157.425 48.298h-2.412v2.412h2.412zM174.311 50.228h-2.412v2.412h2.412zM176.724 52.64h-2.412v2.413h2.412zM179.136 55.053h-2.412v2.412h2.412zM181.548 57.465h-2.412v2.412h2.412zM183.96 59.877h-2.412v2.412h2.412zM159.837 50.71h-2.412v2.413h2.412zM162.25 53.123h-2.412v2.412h2.412zM164.661 55.535h-2.412v2.412h2.412zM167.074 57.947h-2.412v2.412h2.412zM150.188 31.895h-2.412v2.412h2.412zM148.741 34.307h-2.412v2.412h2.412zM147.775 36.72h-2.412v2.411h2.412zM148.741 39.132h-2.412v2.412h2.412zM169.486 60.36h-2.412v2.412h2.412zM152.601 95.096h-2.412v-2.412h2.412zM155.013 93.65h-2.412v-2.412h2.412zM150.188 84.482h-2.412V82.07h2.412zM157.426 91.237h-2.412v-2.412h2.412z"/><path fill="#7EC4C1" d="M159.837 89.79h-2.412v-2.413h2.412zM162.25 87.378h-2.412v-2.412h2.412zM152.601 82.07h-2.412V79.66h2.412zM164.662 84.965h-2.412v-2.412h2.412zM155.013 79.658h-2.412v-2.412h2.412zM167.074 82.553h-2.412V80.14h2.412zM169.486 80.14h-2.412v-2.412h2.412zM171.899 77.729h-2.412v-2.412h2.412zM157.426 77.246h-2.412v-2.412h2.412zM174.311 75.316h-2.412v-2.412h2.412zM176.724 72.903h-2.412v-2.412h2.412zM179.136 70.492h-2.412V68.08h2.412zM159.837 74.833h-2.412v-2.412h2.412zM162.25 72.421h-2.412V70.01h2.412zM164.662 70.009h-2.412v-2.412h2.412zM167.074 67.596h-2.412v-2.412h2.412zM150.188 93.65h-2.412v-2.412h2.412zM148.741 91.237h-2.412v-2.412h2.412z"/><path fill="#7EC4C1" d="M147.776 88.825h-2.412v-2.412h2.412zM148.741 86.413h-2.412v-2.412h2.412zM169.486 65.185h-2.412v-2.412h2.412zM181.548 65.667h-2.412v2.412h2.412zM183.96 62.29h-2.412v3.377h2.412z"/><path d="M155 34l-4-2h-1l-1 1-2 3v4l2 2 2 3 3 2 2 3 2 2 3 2 2 3 3 2 2 2v3l-2 2-3 3-2 2-2 2-3 3-2 2-3 3-3 3-1 3 1 4 2 2 2 1 2-2 2-2 3-1 2-3 3-2 2-3 2-2 2-2h1l2-3 2-2 2-2 3-3 2-2 1-4-3-2-2-3-2-2-3-3-2-2-3-2-2-3-3-2-2-3-2-2-4-3zM126.549 33.342h2.412v2.412h-2.412zM124.136 35.755h2.412v2.412h-2.412zM121.725 40.579h2.412v2.412h-2.412zM119.312 45.404h2.412v2.412h-2.412zM116.899 50.228h2.412v2.412h-2.412zM114.487 55.053h2.412v2.412h-2.412zM112.075 59.877h2.412v2.412h-2.412zM109.662 64.702h2.412v2.412h-2.412zM107.25 69.526h2.412v2.412h-2.412zM104.838 74.351h2.412v2.412h-2.412zM121.725 42.991h2.412v2.412h-2.412zM119.312 47.816h2.412v2.412h-2.412zM124.136 38.167h2.412v2.412h-2.412zM114.487 57.465h2.412v2.412h-2.412zM116.899 52.641h2.412v2.412h-2.412zM112.075 62.29h2.412v2.412h-2.412zM109.662 67.114h2.412v2.412h-2.412zM107.25 71.939h2.412v2.412h-2.412zM104.838 76.763h2.412v2.412h-2.412zM136.198 38.167h2.412v2.412h-2.412zM133.785 40.579h2.412v2.412h-2.412zM131.374 45.404h2.412v2.412h-2.412zM128.961 50.228h2.412v2.412h-2.412zM126.549 55.053h2.412v2.412h-2.412zM124.136 59.877h2.412v2.412h-2.412zM121.725 64.702h2.412v2.412h-2.412zM119.312 69.526h2.412v2.412h-2.412zM116.899 74.351h2.412v2.412h-2.412zM114.487 79.176h2.412v2.412h-2.412zM131.374 47.816h2.412v2.412h-2.412zM128.961 52.641h2.412v2.412h-2.412zM133.785 42.991h2.412v2.412h-2.412zM124.136 62.29h2.412v2.412h-2.412zM126.549 57.465h2.412v2.412h-2.412zM121.725 67.114h2.412v2.412h-2.412z" fill="#7EC4C1"/><path fill="#7EC4C1" d="M117 71.145h4v4h-4zM116.899 76.763h2.412v2.412h-2.412zM114.487 81.588h2.412V84h-2.412zM128.961 30.93h2.412v2.412h-2.412zM131.374 33.342h2.412v2.412h-2.412zM133.785 35.755h2.412v2.412h-2.412zM104.838 81.588h2.412V84h-2.412z"/><path fill="#7EC4C1" d="M102.426 79.176h2.412v2.412h-2.412zM107.25 84h2.412v2.412h-2.412zM109.662 86.412h2.412v2.412h-2.412zM112.075 84h2.412v2.412h-2.412z"/><path d="M128 34l2-2 2 2 1 1 2 1 2 3-1 3-1 2-2 2v3l-2 2-1 3-2 2v3l-3 2v2l-2 2v2l-2 4-3 6-3 6-1 2-4 3-2-3-3-2-1-3 2-2v-2l2-2 1-4 2-4 2-3 2-5 4-6 1-4 3-5 3-6 2-3z" fill="#7EC4C1"/><path d="M85 80l9-3 43-1 8 2 7 1 4 1-1 3 5 3 5 3 4 3 7 1 3 5-6 2-3 3 4 3 4 4 6 1 3 6v12l5 1 2 4-2 3v5l3 5 2 2 1 18-3 2-1 6-4 7-1 12-1 2-2 5-2 6-4-3-7-2-2 3-9 11-14 5-5 2-44 1-5-3h-7l-9-5-8-12-7-1-3 7-4-5-2-7-3-4v-11l-4-5-1-7-3-4v-17l2-2 1-2 2-2v-4l-1-8 5-2 1-9v-6l8-5 3-2 4-3 2-3-2-1-8-5 10-3 7-5 5-2 3-2v-4z" fill="url(#paint0_radial_9983_89500)"/><path fill="#0D2036" d="M95.843 74.6h51.145v3.081H95.843zM46.546 121.431h3.081v3.081h-3.081zM52.092 121.431h3.081v3.081h-3.081zM52.092 124.512h3.081v3.081h-3.081zM46.546 128.826h3.081v3.081h-3.081zM45.313 131.907h3.081v3.081h-3.081zM44.081 134.988h3.081v3.081h-3.081zM41 138.069h3.081v3.081H41zM44.081 141.15h3.081v7.394h-3.081z"/><path fill="#0D2036" d="M47.162 134.988h3.081v10.476h-3.081zM44.081 168.263h3.081v30.194h-3.081zM41 148.544h3.081v19.719H41zM41 175.658h3.081v14.789H41z"/><path fill="#0D2036" d="M47.162 195.376h3.081v8.011h-3.081zM51.476 194.76h3.081v8.011h-3.081zM63.184 200.922h3.081v4.313h-3.081zM66.265 200.922h3.081v4.313h-3.081z"/><path fill="#0D2036" d="M68.73 200.922h3.081v9.243H68.73z"/><path fill="#0D2036" d="M70.578 203.387h3.081v9.243h-3.081z"/><path fill="#0D2036" d="M73.043 208.317h3.081v9.243h-3.081z"/><path fill="#0D2036" d="M76.124 210.782h3.081v9.243h-3.081zM79.205 210.782h3.081v9.243h-3.081z"/><path fill="#0D2036" d="M81.054 213.246h3.081v9.243h-3.081z"/><path fill="#0D2036" d="M83.519 215.711H86.6v9.243h-3.081z"/><path fill="#0D2036" d="M85.367 218.176h3.081v9.243h-3.081z"/><path fill="#0D2036" d="M87.832 221.257h3.081v9.243h-3.081z"/><path fill="#0D2036" d="M90.297 227.419h3.081v3.081h-3.081zM87.216 219.408h6.162v3.081h-6.162z"/><path fill="#0D2036" d="M92.762 219.408h3.081v3.081h-3.081z"/><path fill="#0F2741" d="M95.843 221.873h46.832v3.081H95.843z"/><path fill="#0D2036" d="M53.94 199.69h3.081v8.011H53.94zM95.824 221.934h17.883v3.083H95.824z"/><path fill="#0D2036" d="M56.405 204.619h3.081v8.011h-3.081z"/><path fill="#0D2036" d="M58.254 199.69h3.081v15.405h-3.081z"/><path fill="#0D2036" d="M60.719 200.922H63.8v16.638h-3.081zM49.011 187.366h3.081v8.011h-3.081zM49.011 179.355h3.081v8.011h-3.081z"/><path fill="#0D2036" d="M47.162 175.041h3.081v8.011h-3.081zM49.627 128.826h3.081v3.081h-3.081z"/><path fill="#0D2036" d="M52.092 127.593h3.081v3.081h-3.081zM92.762 75.832h3.081v3.081h-3.081zM81.054 78.297h4.93v3.081h-4.93zM61.335 107.259h4.93v3.081h-4.93zM53.94 109.107h7.394v3.081H53.94zM51.476 112.188h7.394v3.081h-7.394zM49.011 115.269h7.394v3.081h-7.394z"/><path fill="#0D2036" d="M46.546 118.35h7.394v3.081h-7.394zM83.519 81.378h4.93v3.081h-4.93zM78.589 84.459h4.93v3.081h-4.93zM73.659 87.54h4.93v3.081h-4.93z"/><path fill="#0D2036" d="M68.73 90.621h4.93v3.081h-4.93zM68.73 101.096h4.93v3.081h-4.93zM63.8 104.177h4.93v3.081H63.8zM49.011 94.934h16.021v3.081H49.011zM61.335 91.853h7.394v3.081h-7.394zM51.476 98.015H68.73v3.081H51.476zM85.983 77.064h6.778v3.081h-6.778z"/><path fill="#fff" d="M95.842 104.177h14.789v3.081H95.842z"/><path fill="#fff" d="M110.015 106.642h3.081v22.183h-3.081z"/><path fill="#fff" d="M112.479 111.572h3.081v12.324h-3.081zM108.166 125.745h3.081v3.081h-3.081zM93.377 128.21h14.789v3.081H93.377z"/><path fill="#fff" d="M90.912 125.745h17.254v3.081H90.912z"/><path fill="#fff" d="M88.447 123.28h5.546v3.081h-5.546z"/><path fill="#fff" d="M85.982 111.572h5.546v12.324h-5.546z"/><path fill="#fff" d="M88.447 106.642h22.183v19.102H88.447z"/><path fill="#fff" d="M93.377 104.177h5.546v3.081h-5.546z"/><path fill="#fff" d="M96.458 101.713h9.859v2.465h-9.859z"/><path fill="#CCC" d="M96.458 101.713h2.465v2.465h-2.465z"/><path fill="#CCC" d="M96.458 104.177h2.465v2.465h-2.465zM93.377 104.177h3.081v2.465h-3.081z"/><path fill="#CCC" d="M88.447 106.642h6.778v2.465h-6.778zM90.912 126.361h4.313v2.465h-4.313zM93.377 128.826h4.313v2.465h-4.313zM88.447 109.107h3.697v2.465h-3.697zM88.447 123.896h3.697v2.465h-3.697zM85.982 111.572h4.93v2.465h-4.93z"/><path fill="#CCC" d="M85.982 111.572h3.697v12.324h-3.697z"/><path fill="#000" d="M103.465 107h4.93v2.465h-4.93zM103.465 116.859h4.93v2.465h-4.93z"/><path fill="#000" d="M101 109.465h9.859v7.394H101z"/><path fill="#fff" d="M132.815 104.177h14.789v3.081h-14.789z"/><path fill="#fff" d="M146.987 106.642h3.081v22.183h-3.081z"/><path fill="#fff" d="M149.453 111.572h3.081v12.324h-3.081zM145.14 125.745h3.081v3.081h-3.081zM130.351 128.21h14.789v3.081h-14.789z"/><path fill="#fff" d="M127.886 125.745h17.254v3.081h-17.254z"/><path fill="#fff" d="M125.421 123.28h5.546v3.081h-5.546z"/><path fill="#fff" d="M122.956 111.572h5.546v12.324h-5.546z"/><path fill="#fff" d="M125.421 106.642h22.183v19.102h-22.183z"/><path fill="#fff" d="M130.351 104.177h5.546v3.081h-5.546z"/><path fill="#fff" d="M133.432 101.713h9.859v2.465h-9.859z"/><path fill="#CCC" d="M133.432 101.713h2.465v2.465h-2.465z"/><path fill="#CCC" d="M133.432 104.177h2.465v2.465h-2.465zM130.351 104.177h3.081v2.465h-3.081z"/><path fill="#CCC" d="M125.421 106.642h6.778v2.465h-6.778zM127.886 126.361h4.313v2.465h-4.313zM130.351 128.826h4.313v2.465h-4.313zM125.421 109.107h3.697v2.465h-3.697zM125.421 123.896h3.697v2.465h-3.697zM122.956 111.572h4.93v2.465h-4.93z"/><path fill="#CCC" d="M122.956 111.572h3.697v12.324h-3.697z"/><path fill="#000" d="M140.438 107h4.93v2.465h-4.93zM140.438 116.859h4.93v2.465h-4.93z"/><path fill="#000" d="M137.974 109.465h9.859v7.394h-9.859z"/><path fill="#112A46" d="M144.522 74.6h-3.081v3.08h3.081zM193.819 121.431h-3.081v3.081h3.081zM188.273 121.431h-3.081v3.081h3.081zM188.273 124.512h-3.081v3.081h3.081zM193.819 128.826h-3.081v3.081h3.081zM195.052 131.907h-3.081v3.081h3.081zM196.284 134.988h-3.081v3.081h3.081zM199.365 138.069h-3.081v3.081h3.081zM196.284 141.15h-3.081v7.394h3.081zM193.203 134.988h-3.081v10.476h3.081zM196.284 168.263h-3.081v30.194h3.081zM199.365 148.544h-3.081v19.719h3.081zM199.365 175.658h-3.081v14.789h3.081zM193.203 195.376h-3.081v8.011h3.081zM188.89 194.76h-3.081v8.011h3.081zM177.182 200.922h-3.081v4.313h3.081zM174.101 200.922h-3.081v4.313h3.081z"/><path fill="#112A46" d="M171.636 200.922h-3.081v9.243h3.081z"/><path fill="#112A46" d="M169.787 203.387h-3.081v9.243h3.081z"/><path fill="#112A46" d="M167.322 208.317h-3.081v9.243h3.081zM164.241 210.782h-3.081v9.243h3.081zM161.16 210.782h-3.081v9.243h3.081z"/><path fill="#112A46" d="M159.312 213.246h-3.081v9.243h3.081z"/><path fill="#112A46" d="M156.847 215.711h-3.081v9.243h3.081z"/><path fill="#112A46" d="M154.998 218.176h-3.081v9.243h3.081z"/><path fill="#112A46" d="M152.533 221.257h-3.081v9.243h3.081z"/><path fill="#112A46" d="M150.068 227.419h-3.081v3.081h3.081zM153.149 219.408h-6.162v3.081h6.162z"/><path fill="#112A46" d="M147.604 219.408h-3.081v3.081h3.081zM186.425 199.69h-3.081v8.011h3.081z"/><path fill="#112A46" d="M183.96 204.619h-3.081v8.011h3.081z"/><path fill="#112A46" d="M182.111 199.69h-3.081v15.405h3.081z"/><path fill="#112A46" d="M179.646 200.922h-3.081v16.638h3.081zM191.354 187.366h-3.081v8.011h3.081zM191.354 179.355h-3.081v8.011h3.081z"/><path fill="#112A46" d="M193.203 175.041h-3.081v8.011h3.081zM190.738 128.826h-3.081v3.081h3.081z"/><path fill="#112A46" d="M188.273 127.593h-3.081v3.081h3.081zM147.604 75.832h-3.081v3.08h3.081zM159.312 78.297h-4.93v3.08h4.93zM179.03 107.259h-4.93v3.081h4.93zM186.425 109.107h-7.394v3.081h7.394zM188.89 112.188h-7.394v3.081h7.394zM191.354 115.269h-7.394v3.081h7.394z"/><path fill="#112A46" d="M193.819 118.35h-7.394v3.081h7.394zM156.847 81.378h-4.93v3.08h4.93zM161.776 84.459h-4.93v3.08h4.93zM166.706 87.54h-4.93v3.08h4.93zM171.636 90.62h-4.93v3.082h4.93zM171.636 101.096h-4.93v3.081h4.93zM176.565 104.177h-4.93v3.081h4.93zM191.354 94.934h-16.021v3.081h16.021zM179.03 91.853h-7.394v3.081h7.394zM188.89 98.015h-17.254v3.081h17.254zM154.383 77.064h-6.778v3.081h6.778zM145.155 221.934h-3.081v3.081h3.081z"/><path fill="#000" d="M117.286 150.393h3.944v1.972h-3.944zM117.286 158.281h3.944v1.972h-3.944zM115.313 152.365h7.887v5.916h-7.887z"/><path fill="#000" d="M114.328 153.844h9.859v2.958h-9.859z"/><path fill="#A3BACE" d="M111.695 159.791h.784v.784h-.784zM110.442 157.912h.783v3.759h-.783zM104.331 157.912h.783v3.759h-.783z"/><path fill="#A3BACE" d="M111.068 159.165h.783v1.88h-.783zM103.852 159.165h.783v1.88h-.783zM109.815 157.285h.783v4.386h-.783zM104.71 156.149h.986v5.522h-.986z"/><path fill="#A3BACE" d="M109.189 156.032h.783v6.266h-.783z"/><path fill="#A3BACE" d="M108.562 154.779h.783v7.519h-.783zM105.367 154.23h.775v7.441h-.775z"/><path fill="#A3BACE" d="M107.936 152.899h.783v9.398h-.783zM106.057 152.273h.783v9.398h-.783z"/><path fill="#A3BACE" d="M107.31 150.393h.783v11.905h-.783z"/><path fill="#A3BACE" d="M106.683 151.02h.783v11.278h-.783zM126.819 159.791h-.784v.784h.784zM128.072 157.912h-.783v3.759h.783zM134.184 157.912h-.783v3.759h.783z"/><path fill="#A3BACE" d="M127.446 159.165h-.783v1.88h.783zM134.663 159.165h-.783v1.88h.783zM128.699 157.285h-.783v4.386h.783zM133.805 156.149h-.986v5.522h.986z"/><path fill="#A3BACE" d="M129.325 156.032h-.783v6.266h.783z"/><path fill="#A3BACE" d="M129.952 154.779h-.783v7.519h.783zM133.147 154.23h-.775v7.441h.775z"/><path fill="#A3BACE" d="M130.579 152.899h-.783v9.398h.783zM132.458 152.273h-.783v9.398h.783z"/><path fill="#A3BACE" d="M131.205 150.393h-.783v11.905h.783z"/><path fill="#A3BACE" d="M131.832 151.02h-.783v11.278h.783zM109.602 84.824h2.547v2.547h-2.547zM105.526 78.712h2.547v12.224h-2.547z"/><path fill="#A3BACE" d="M107.563 82.787h2.547v6.112h-2.547zM87.216 82.787h2.547v6.112h-2.547zM103.489 76.675h2.547v14.261h-2.547z"/><path fill="#A3BACE" d="M101.452 72.6h2.547v20.373h-2.547z"/><path fill="#A3BACE" d="M99.415 68.526h2.547v24.448h-2.547zM89.458 70.902h2.087v20.034h-2.087z"/><path fill="#A3BACE" d="M97.377 62.414h2.547v30.56h-2.547zM91.265 60.377h2.547v30.56h-2.547z"/><path fill="#A3BACE" d="M95.34 54.265h2.547v38.709H95.34z"/><path fill="#A3BACE" d="M93.303 56.302h2.547v36.672h-2.547z"/><path fill="#87A5BF" d="M95.207 54.201h3.083v3.083h-3.083zM95.207 57.284h3.083v3.083h-3.083zM95.207 60.367h3.083v9.25h-3.083z"/><path fill="#87A5BF" d="M97.057 62.218h3.083v11.717h-3.083z"/><path fill="#87A5BF" d="M98.907 68.384h3.083v11.717h-3.083z"/><path fill="#87A5BF" d="M101.374 72.084h3.083v11.717h-3.083z"/><path fill="#87A5BF" d="M103.224 76.401h3.083v8.017h-3.083z"/><path fill="#87A5BF" d="M105.69 78.251h3.083v8.017h-3.083z"/><path fill="#87A5BF" d="M107.54 82.567h3.083v3.7h-3.083z"/><path fill="#87A5BF" d="M109.391 84.418h3.083v3.7h-3.083z"/><path fill="#A3BACE" d="M130.765 84.824h-2.547v2.547h2.547zM134.839 78.712h-2.547v12.224h2.547z"/><path fill="#A3BACE" d="M132.802 82.787h-2.547v6.112h2.547zM153.15 82.787h-2.547V88.9h2.547zM136.877 76.675h-2.547v14.261h2.547z"/><path fill="#A3BACE" d="M138.914 72.6h-2.547v20.374h2.547z"/><path fill="#A3BACE" d="M140.951 68.526h-2.547v24.448h2.547zM150.908 70.902h-2.087v20.034h2.087z"/><path fill="#A3BACE" d="M142.988 62.414h-2.547v30.56h2.547zM149.101 60.377h-2.547v30.56h2.547z"/><path fill="#A3BACE" d="M145.026 54.265h-2.547v38.709h2.547z"/><path fill="#A3BACE" d="M147.063 56.302h-2.547v36.672h2.547z"/><path fill="#87A5BF" d="M145.158 54.2h-3.083v3.084h3.083z"/><path fill="#87A5BF" d="M145.158 57.284h-3.083v3.083h3.083zM145.158 60.367h-3.083v9.25h3.083z"/><path fill="#87A5BF" d="M143.309 62.218h-3.083v11.716h3.083z"/><path fill="#87A5BF" d="M141.458 68.384h-3.083v11.717h3.083z"/><path fill="#87A5BF" d="M138.991 72.084h-3.083v11.717h3.083z"/><path fill="#87A5BF" d="M137.142 76.4h-3.083v8.018h3.083z"/><path fill="#87A5BF" d="M134.675 78.25h-3.083v8.018h3.083z"/><path fill="#87A5BF" d="M132.825 82.567h-3.083v3.7h3.083z"/><path fill="#87A5BF" d="M130.975 84.418h-3.083v3.7h3.083z"/></g><path fill="#292E38" d="M211.001 30h16v8h-16zM211.001 62h16v8h-16zM202.998 38h32v24h-32z"/><path fill="#292E38" d="M199 44h40v12h-40zM195 64h4v2h-4zM195 71.999h4v2h-4z"/><path fill="#292E38" d="M193 66h8v6h-8z"/><path fill="#292E38" d="M192 67.5h10v3h-10zM184 76h4v2h-4zM184 83.999h4v2h-4z"/><path fill="#292E38" d="M182 78h8v6h-8z"/><path fill="#292E38" d="M181 79.5h10v3h-10z"/><defs><radialGradient id="paint0_radial_9983_89500" cx="0" cy="0" r="1" gradientUnits="userSpaceOnUse" gradientTransform="matrix(-122.009 45.6003 -47.78068 -127.84286 171.944 114.345)"><stop stop-color="#143457"/><stop offset=".298" stop-color="#112D4B"/><stop offset=".548" stop-color="#102A46"/><stop offset=".76" stop-color="#0F2842"/><stop offset="1" stop-color="#0E253E"/></radialGradient></defs></svg>